<?xml version="1.0" standalone="no"?>
<!DOCTYPE svg PUBLIC "-//W3C//DTD SVG 20010904//EN"
 "http://www.w3.org/TR/2001/REC-SVG-20010904/DTD/svg10.dtd">
<svg version="1.0" xmlns="http://www.w3.org/2000/svg"
 width="446.000000pt" height="634.000000pt" viewBox="0 0 446.000000 634.000000"
 preserveAspectRatio="xMidYMid meet">

<g transform="translate(0.000000,634.000000) scale(0.100000,-0.100000)"
fill="#000000" stroke="none">
<path d="M1005 5989 c-68 -19 -101 -76 -145 -246 -16 -64 -30 -73 -114 -73
-43 0 -77 5 -84 12 -7 7 -12 31 -12 54 0 48 8 54 81 54 l49 0 0 95 0 95 -87 0
c-107 0 -147 -17 -177 -75 -18 -35 -21 -58 -21 -185 0 -127 2 -149 20 -180 36
-61 79 -75 240 -75 123 0 144 2 175 21 51 29 75 71 100 175 30 122 38 129 143
129 51 0 88 -5 95 -12 7 -7 12 -31 12 -55 0 -52 -16 -63 -94 -63 l-56 0 0
-101 0 -102 95 6 c114 7 160 26 188 80 26 50 39 176 28 264 -20 157 -74 194
-285 192 -66 0 -135 -5 -151 -10z"/>
<path d="M2265 5988 c381 -43 667 -236 838 -567 126 -242 187 -520 187 -855 0
-480 -154 -911 -420 -1176 -248 -249 -549 -313 -825 -176 -99 49 -218 140
-307 234 l-58 61 0 -870 0 -869 1140 0 1140 0 0 2115 0 2115 -887 -1 c-591 -1
-861 -5 -808 -11z"/>
<path d="M577 5359 c-66 -35 -82 -86 -82 -254 0 -130 2 -144 25 -189 44 -88
39 -87 457 -84 347 3 363 4 389 24 41 30 63 81 74 170 12 92 0 216 -26 270 -9
19 -31 44 -48 57 -31 22 -36 22 -391 24 -346 2 -362 2 -398 -18z m698 -254 l0
-50 -310 0 -310 0 -3 39 c-6 71 -25 67 315 64 l308 -3 0 -50z"/>
<path d="M1680 4620 l0 -460 69 0 c230 0 352 164 352 474 0 219 -59 363 -174
421 -44 22 -64 25 -149 25 l-98 0 0 -460z"/>
<path d="M500 4620 l0 -110 180 0 180 0 0 -60 0 -60 -180 0 -180 0 0 -110 0
-110 468 2 467 3 3 108 3 107 -206 0 -205 0 0 60 0 60 203 2 202 3 3 108 3
107 -471 0 -470 0 0 -110z"/>
<path d="M500 3860 l0 -260 85 0 85 0 0 75 0 75 385 0 386 0 -3 108 -3 107
-382 3 -382 2 -3 73 -3 72 -82 3 -83 3 0 -261z"/>
<path d="M620 3538 c-19 -5 -47 -21 -63 -36 -46 -44 -57 -103 -57 -319 l0
-193 470 0 470 0 0 105 0 105 -165 0 -165 0 0 39 c0 22 4 51 10 65 l9 25 153
3 153 3 3 108 3 107 -153 0 c-189 0 -212 -8 -244 -88 l-21 -52 -11 38 c-14 45
-44 75 -91 91 -41 13 -252 13 -301 -1z m314 -224 c10 -10 16 -33 16 -65 l0
-49 -145 0 -145 0 0 53 c0 29 5 58 12 65 8 8 51 12 129 12 94 0 121 -3 133
-16z"/>
<path d="M1070 2875 c-190 -29 -396 -61 -458 -70 l-112 -17 0 -174 c0 -172 0
-174 23 -179 30 -7 885 -135 903 -135 19 0 21 208 2 215 -7 2 -59 9 -115 15
l-103 12 0 69 c0 63 2 69 23 73 23 5 184 26 199 26 4 0 8 50 8 110 0 82 -3
110 -12 109 -7 -1 -168 -25 -358 -54z m-20 -266 l0 -51 -37 6 c-21 3 -96 13
-168 21 -230 27 -230 26 -40 51 94 12 187 22 208 23 l37 1 0 -51z"/>
<path d="M628 2314 c-57 -17 -100 -59 -116 -111 -8 -25 -12 -112 -12 -232 l0
-191 470 0 470 0 0 105 0 105 -134 0 -133 0 -6 94 c-9 160 -47 212 -171 235
-86 16 -311 13 -368 -5z m342 -217 c21 -10 26 -21 28 -60 l3 -47 -165 0 -166
0 0 54 c0 34 5 56 13 59 27 12 262 6 287 -6z"/>
<path d="M760 1501 l0 -99 -37 20 c-29 14 -52 18 -96 16 -106 -8 -141 -63
-135 -214 6 -112 25 -144 98 -163 61 -15 125 -5 155 25 13 14 15 13 15 -5 0
-17 6 -21 30 -21 l30 0 0 270 0 270 -30 0 -30 0 0 -99z m-29 -130 c23 -18 24
-26 24 -126 0 -100 -1 -108 -24 -126 -16 -13 -39 -19 -77 -19 -88 0 -110 40
-102 179 5 93 21 111 98 111 42 0 64 -5 81 -19z"/>
<path d="M1940 1565 c0 -31 3 -35 25 -35 22 0 25 4 25 35 0 31 -3 35 -25 35
-22 0 -25 -4 -25 -35z"/>
<path d="M3890 1502 l0 -100 -37 19 c-47 24 -117 24 -163 1 -52 -26 -70 -70
-69 -172 1 -151 32 -193 143 -194 52 -1 70 3 95 22 30 22 31 22 31 2 0 -16 7
-20 30 -20 l30 0 -2 268 -3 267 -27 3 -28 3 0 -99z m-40 -122 c25 -14 40 -63
40 -135 0 -72 -15 -121 -40 -135 -10 -6 -42 -10 -70 -10 -41 0 -56 5 -75 25
-23 22 -25 32 -25 115 0 87 9 126 34 142 16 11 114 10 136 -2z"/>
<path d="M1066 1430 c-44 -14 -64 -38 -75 -91 -22 -99 -7 -221 29 -254 29 -27
135 -40 202 -26 64 14 88 37 88 83 0 24 -4 28 -30 28 -25 0 -30 -4 -30 -23 0
-13 -5 -28 -12 -35 -13 -13 -146 -17 -164 -4 -19 13 -34 50 -34 86 l0 36 135
0 135 0 0 58 c0 76 -24 123 -70 139 -40 14 -132 15 -174 3z m168 -56 c9 -9 16
-32 16 -55 l0 -39 -106 0 -107 0 6 36 c10 60 30 74 108 74 48 0 72 -5 83 -16z"/>
<path d="M1513 1425 c-61 -26 -69 -135 -13 -176 18 -13 52 -20 118 -25 87 -7
94 -9 103 -31 13 -35 0 -73 -28 -84 -28 -10 -106 -10 -143 0 -19 5 -26 14 -28
39 -3 28 -7 32 -33 32 -26 0 -29 -3 -29 -34 0 -51 26 -75 96 -88 83 -15 170
-3 200 27 31 31 34 121 7 154 -20 23 -95 41 -172 41 -54 0 -71 13 -71 51 0 45
23 59 100 59 66 0 100 -14 100 -41 0 -5 11 -9 25 -9 19 0 25 5 25 21 0 35 -19
58 -58 69 -52 14 -161 12 -199 -5z"/>
<path d="M2243 1434 c-31 -7 -70 -50 -77 -85 -3 -18 -6 -67 -6 -111 0 -124 28
-170 115 -183 47 -8 117 8 141 32 15 16 16 13 12 -51 -5 -86 -17 -96 -109 -96
-69 0 -84 7 -91 45 -2 13 -13 21 -31 23 -23 3 -27 0 -27 -23 0 -14 5 -35 11
-47 34 -64 229 -65 279 -1 19 24 20 39 20 259 l0 234 -25 0 c-19 0 -25 -5 -25
-22 l0 -21 -25 23 c-20 18 -38 24 -83 26 -31 1 -67 0 -79 -2z m156 -63 c25
-25 34 -75 29 -158 -4 -57 -8 -69 -32 -89 -42 -37 -141 -31 -168 10 -4 6 -8
57 -8 114 0 129 9 142 100 142 46 0 65 -5 79 -19z"/>
<path d="M2747 1421 c-29 -15 -37 -16 -37 -5 0 8 -10 14 -25 14 l-25 0 0 -185
0 -185 25 0 25 0 0 118 c0 130 11 187 40 202 10 5 46 10 79 10 87 0 91 -8 91
-187 l0 -143 25 0 25 0 0 149 c0 82 -4 161 -10 176 -20 53 -140 73 -213 36z"/>
<path d="M3221 1427 c-63 -22 -76 -53 -76 -182 0 -141 11 -163 98 -184 115
-27 210 5 223 77 6 31 5 32 -25 32 -26 0 -31 -4 -31 -25 0 -33 -27 -45 -104
-45 -83 0 -106 18 -106 85 l0 45 136 0 137 0 -5 63 c-7 85 -28 123 -76 136
-49 14 -128 13 -171 -2z m169 -52 c6 -8 14 -32 17 -55 l6 -40 -107 0 -106 0 0
35 c0 56 27 75 109 75 48 0 72 -4 81 -15z"/>
<path d="M1940 1245 l0 -185 25 0 25 0 0 185 0 185 -25 0 -25 0 0 -185z"/>
<path d="M584 913 c-38 -8 -57 -40 -62 -103 -4 -58 -5 -60 -33 -60 -22 0 -29
-5 -29 -20 0 -16 7 -20 30 -20 l30 0 0 -171 0 -170 28 3 27 3 3 168 2 167 50
0 c43 0 50 3 50 20 0 17 -7 20 -50 20 l-50 0 0 48 c0 58 12 72 63 72 34 0 38
2 35 23 -2 18 -10 22 -38 23 -19 1 -45 0 -56 -3z"/>
<path d="M870 754 c-91 -17 -110 -49 -110 -189 0 -166 33 -201 182 -193 125 7
148 37 148 195 0 95 -19 155 -55 171 -27 13 -129 22 -165 16z m140 -64 c17
-17 20 -33 20 -123 0 -138 -7 -147 -102 -147 -103 0 -108 6 -108 142 0 137 8
148 105 148 52 0 69 -4 85 -20z"/>
<path d="M1336 750 c-15 -5 -37 -17 -47 -26 -18 -16 -19 -16 -19 4 0 17 -6 22
-25 22 l-25 0 0 -190 0 -190 25 0 25 0 0 129 c0 179 14 211 94 211 42 0 66
-22 66 -61 0 -24 4 -29 25 -29 22 0 25 4 25 39 0 72 -68 115 -144 91z"/>
<path d="M1940 747 c-40 -11 -47 -17 -59 -52 -18 -54 -8 -110 24 -131 16 -10
57 -18 112 -21 49 -3 94 -10 101 -16 6 -5 12 -27 12 -48 0 -48 -18 -59 -100
-59 -74 0 -100 12 -100 45 0 21 -5 25 -31 25 -29 0 -30 -2 -27 -37 4 -53 41
-76 128 -81 137 -8 190 20 190 102 0 93 -24 110 -164 119 -83 6 -96 13 -96 57
0 39 12 49 62 56 69 10 117 -2 128 -32 7 -17 17 -24 35 -24 23 0 26 3 23 32
-5 47 -40 68 -123 73 -39 3 -90 -1 -115 -8z"/>
<path d="M2442 751 c-18 -5 -42 -17 -52 -26 -19 -17 -20 -17 -20 3 0 17 -6 22
-25 22 l-25 0 0 -270 0 -270 25 0 c25 0 25 0 25 99 l0 99 37 -19 c46 -23 123
-25 168 -3 47 22 65 73 65 180 0 94 -15 144 -52 167 -29 19 -103 28 -146 18z
m113 -66 c23 -22 25 -32 25 -115 0 -87 -9 -126 -34 -142 -6 -4 -36 -8 -67 -8
-47 0 -59 4 -80 26 -46 49 -36 234 15 254 11 5 43 9 69 9 38 1 53 -4 72 -24z"/>
<path d="M2865 753 c-50 -11 -74 -27 -84 -55 -16 -44 -14 -48 19 -48 19 0 30
5 30 14 0 27 42 46 102 46 76 0 98 -20 98 -89 l0 -49 -31 15 c-22 11 -52 14
-111 11 -90 -4 -112 -18 -124 -85 -11 -57 10 -108 52 -128 49 -23 163 -18 193
9 21 19 21 19 21 -2 0 -18 6 -22 30 -22 l30 0 0 148 c0 182 -10 211 -80 229
-45 12 -108 14 -145 6z m151 -218 c20 -27 17 -72 -6 -95 -27 -27 -149 -29
-175 -4 -26 26 -16 95 15 112 38 20 149 11 166 -13z"/>
<path d="M3311 747 c-68 -18 -85 -49 -89 -161 -2 -51 1 -111 8 -135 9 -36 18
-45 53 -62 75 -34 213 -20 241 24 8 12 18 39 21 60 7 36 7 37 -24 37 -27 0
-31 -3 -31 -28 0 -46 -27 -62 -103 -62 -99 0 -107 11 -107 144 0 101 1 105 26
125 20 16 41 21 84 21 62 0 90 -18 90 -58 0 -18 6 -22 31 -22 31 0 31 1 26 36
-8 50 -30 71 -88 83 -60 13 -81 13 -138 -2z"/>
<path d="M3751 747 c-70 -19 -85 -48 -89 -170 -3 -83 0 -108 15 -137 25 -48
73 -70 153 -69 110 1 159 30 160 97 0 18 -6 22 -30 22 -25 0 -30 -4 -30 -23 0
-38 -19 -47 -101 -47 -69 0 -80 3 -93 22 -9 12 -16 42 -16 65 l0 43 135 0 135
0 0 50 c0 65 -24 124 -57 139 -39 18 -133 22 -182 8z m159 -57 c12 -12 20 -33
20 -55 l0 -35 -105 0 -105 0 0 30 c0 19 9 40 25 55 20 21 34 25 85 25 47 0 64
-4 80 -20z"/>
</g>
</svg>
